PathFileType	4	(X/Y/Z)	c:\Git\powerlifing_model_clean\simulations\HC835B\Session1\HC835B_OGW_0002\marker_experimental.trc
DataRate	CameraRate	NumFrames	NumMarkers	Units	OrigDataRate	OrigDataStartFrame	OrigNumFrames
240.000000	240.000000	4	38	mm	240.000000	109	436
Frame#	Time	RPSI			LPSI			RASI			LASI			RTH1			RTH2			RTH3			RTH4			RSK1			RSK2			RSK3			RSK4			RCAL1			RCAL2			RCAL3			RST			RPT			RTN			RFMB			RSMB			RVMB			RFMH			RSMH			RVMH			RPM			LTH1			LTH2			LTH3			LTH4			LSK1			LSK2			LSK3			LSK4			LCAL1			LCAL2			LCAL3			LFMH			LVMH			
		X1	Y1	Z1	X2	Y2	Z2	X3	Y3	Z3	X4	Y4	Z4	X5	Y5	Z5	X6	Y6	Z6	X7	Y7	Z7	X8	Y8	Z8	X9	Y9	Z9	X10	Y10	Z10	X11	Y11	Z11	X12	Y12	Z12	X13	Y13	Z13	X14	Y14	Z14	X15	Y15	Z15	X16	Y16	Z16	X17	Y17	Z17	X18	Y18	Z18	X19	Y19	Z19	X20	Y20	Z20	X21	Y21	Z21	X22	Y22	Z22	X23	Y23	Z23	X24	Y24	Z24	X25	Y25	Z25	X26	Y26	Z26	X27	Y27	Z27	X28	Y28	Z28	X29	Y29	Z29	X30	Y30	Z30	X31	Y31	Z31	X32	Y32	Z32	X33	Y33	Z33	X34	Y34	Z34	X35	Y35	Z35	X36	Y36	Z36	X37	Y37	Z37	X38	Y38	Z38	

110	0.4541666666666667	447.6599121093751	1142.573974609375	-1781.077026367188	557.4449462890626	1136.4326171875	-1776.330444335938	373.4610595703126	1093.927001953125	-1580.047973632813	608.1592407226564	1097.283447265625	-1564.43896484375	322.9541931152344	817.9956054687502	-1689.888305664063	334.9810791015626	799.133483886719	-1633.323608398438	339.2688293457032	735.8255615234376	-1678.67431640625	363.8038940429688	718.7382812500001	-1628.304809570313	414.7049560546876	297.8366699218751	-1835.791137695313	409.0485229492189	274.2248229980469	-1778.794311523438	422.1375122070314	239.9321594238282	-1827.869018554688	428.6469116210939	219.2011108398438	-1771.509765625	497.2338867187501	95.24792480468751	-1899.2021484375	528.0222167968751	56.9635696411133	-1888.51611328125	465.3059387207032	57.82820129394533	-1901.19287109375	532.0983886718751	68.80385589599611	-1818.70849609375	433.5908203125001	66.52596282958986	-1845.184448242188	510.975067138672	86.2904739379883	-1764.38134765625	501.9320068359376	69.10762023925783	-1733.423950195313	452.7198486328126	91.89051055908205	-1730.686401367188	417.0881652832032	39.94128417968751	-1804.765258789063	496.1280212402345	41.28953552246094	-1680.8115234375	440.9172668457032	53.96133422851564	-1673.888793945313	389.409881591797	32.60974884033204	-1729.546752929688	444.6226196289064	39.47149658203126	-1614.835571289063	707.8899536132814	831.745056152344	-1544.391723632813	702.5119628906251	846.547546386719	-1486.106567382813	707.3286132812501	765.5983886718751	-1490.060546875	686.8180541992189	779.9630126953127	-1433.535766601563	663.1331176757814	334.9126586914063	-1525.046264648438	674.3422851562501	312.2270202636719	-1477.703247070313	661.1191406250001	279.0354919433594	-1512.705200195313	658.4008178710939	259.3720397949219	-1459.595581054688	591.7089233398439	144.2276611328125	-1571.316162109375	617.1549072265626	103.905746459961	-1579.841552734375	559.5841064453126	108.9703216552735	-1566.5263671875	589.6859741210939	83.12243652343751	-1350.030029296875	681.2130737304689	50.37240982055665	-1404.114868164063	
111	0.4583333333333333	448.2713012695314	1141.661254882813	-1774.576171875	557.9747314453126	1135.170654296875	-1769.619384765625	373.1503601074219	1092.951782226563	-1573.723388671875	608.1437988281251	1095.548706054688	-1557.619873046875	323.0317077636719	817.4522094726565	-1685.341796875	334.9913635253907	798.3978271484377	-1628.700439453125	339.3462829589844	735.5310058593751	-1674.42333984375	363.9190673828126	718.0477294921876	-1624.257934570313	414.9225158691407	298.1726074218751	-1834.46533203125	409.2732849121095	274.3908691406251	-1777.619384765625	422.3663635253907	240.0697784423829	-1826.794555664063	428.8008728027345	219.1992187500001	-1770.586669921875	497.5181884765626	95.7052459716797	-1898.857421875	528.2672729492189	57.34994506835939	-1888.284301757813	465.5465393066407	58.26070785522462	-1900.970458984375	532.2789306640626	68.93657684326173	-1818.407592773438	433.7092895507814	66.77597045898439	-1845.041015625	511.414764404297	86.19875335693361	-1764.124267578125	501.989959716797	69.03326416015626	-1733.17431640625	452.7741699218751	91.83450317382814	-1730.41650390625	417.2137451171876	40.09310150146485	-1804.654418945313	496.0362243652345	41.16626358032227	-1680.673461914063	440.8501892089845	53.77860641479494	-1673.764038085938	389.3817443847657	32.59775924682618	-1729.519165039063	444.4585876464845	39.11499786376954	-1614.67724609375	706.6240844726564	830.3308715820315	-1537.686279296875	701.3651123046876	845.1783447265627	-1479.370849609375	705.7938842773439	764.2189941406251	-1483.351440429688	685.4873657226564	778.6516723632815	-1426.767578125	662.9633178710939	331.3549194335938	-1510.607055664063	673.9853515625001	310.0754394531251	-1462.594116210938	660.9851074218751	275.9008483886719	-1496.68310546875	658.1876220703126	257.6590576171876	-1443.110473632813	591.9345092773439	138.8763275146485	-1551.67431640625	617.6018676757814	98.59669494628909	-1558.912109375	559.8849487304689	103.8205337524414	-1545.746948242188	589.7812500000001	84.29449462890626	-1328.566650390625	681.3553466796876	50.0228614807129	-1381.492065429688	
112	0.4625	448.9058227539064	1140.75390625	-1768.062622070313	558.4977416992189	1133.869750976563	-1762.929443359375	372.9072875976563	1091.908081054688	-1567.363037109375	608.1709594726564	1093.84375	-1550.718383789063	323.1062011718751	817.1916503906252	-1680.589477539063	334.9295349121094	797.434509277344	-1624.280883789063	339.5190734863282	734.9627685546876	-1670.34228515625	363.9535827636719	717.1812133789064	-1620.270385742188	415.1189270019532	298.5011291503907	-1833.096923828125	409.4619140625001	274.4961853027344	-1776.294311523438	422.5954589843751	240.5527648925782	-1825.671264648438	428.9658813476564	219.1268157958985	-1769.662841796875	497.7673645019532	96.14307403564456	-1898.484985351563	528.4683837890626	57.72674560546876	-1888.053466796875	465.7516479492189	58.7073097229004	-1900.756469726563	532.4641723632814	69.14609527587892	-1818.109252929688	433.9098510742189	67.07948303222658	-1844.852416992188	511.0844726562501	86.32019042968751	-1763.470458984375	501.9971008300782	68.95617675781251	-1732.895751953125	452.8025512695314	91.74352264404298	-1730.189453125	417.3192443847657	40.25654602050782	-1804.557983398438	495.9430236816407	41.08788299560548	-1680.514770507813	440.755828857422	53.61661911010744	-1673.59375	389.3589782714845	32.56242370605469	-1729.495239257813	444.4030761718751	38.74938201904298	-1614.601684570313	705.3848876953126	828.8383789062502	-1531.091064453125	700.1927490234376	843.5935668945315	-1472.793823242188	704.2479858398439	762.6284179687501	-1476.795654296875	684.0895385742189	777.1802978515627	-1420.146850585938	662.7034301757814	327.8049011230469	-1496.142822265625	673.5037231445314	308.1374511718751	-1447.53857421875	661.9051513671876	273.4107055664063	-1481.0341796875	657.9699096679689	256.1319274902344	-1426.667358398438	592.1597900390626	133.9228515625	-1531.988891601563	618.0521850585939	93.3859329223633	-1537.8359375	560.2744140625001	98.81192016601565	-1524.9306640625	589.8887939453126	85.8699417114258	-1307.143920898438	681.5135498046876	50.06630706787111	-1359.00244140625	
113	0.4666666666666667	449.5567932128907	1139.81494140625	-1761.47998046875	559.0495605468751	1132.513916015625	-1756.138916015625	372.6581420898438	1090.8095703125	-1560.980224609375	608.2470092773439	1091.94482421875	-1543.846801757813	323.1647338867188	816.8233642578127	-1675.924560546875	334.8689575195313	796.8560791015627	-1619.56884765625	339.5161743164063	734.5195922851564	-1666.187744140625	363.8449401855469	716.3965454101564	-1616.098876953125	415.3600463867189	298.8433227539063	-1831.658325195313	409.6162414550782	274.4942016601563	-1775.076049804688	422.7815551757814	240.8050231933594	-1824.65576171875	429.0781555175782	219.1195373535157	-1768.703002929688	497.9812622070314	96.58338165283206	-1898.136962890625	528.7087402343751	58.11085128784181	-1887.742431640625	466.0067749023439	59.24264907836915	-1900.552612304688	532.6462402343751	69.31400299072267	-1817.792236328125	434.0507812500001	67.40206909179689	-1844.644653320313	511.1768493652345	86.41024780273439	-1762.998901367188	502.3137207031251	68.79163360595705	-1732.81201171875	452.8364257812501	91.67565917968751	-1729.917724609375	417.4244995117189	40.40214538574219	-1804.444213867188	495.8682556152345	41.00423812866212	-1680.373168945313	440.5263977050782	53.56120681762697	-1673.394775390625	389.3610839843751	32.51548004150391	-1729.512329101563	444.188446044922	38.27334213256837	-1614.3603515625	703.9579467773439	827.0513305664065	-1524.737548828125	699.0293579101564	841.867370605469	-1466.40478515625	702.5943603515626	760.8246459960939	-1470.461669921875	682.6955566406251	775.5139160156252	-1413.694580078125	662.5244140625001	324.4374389648438	-1481.793212890625	673.1247558593751	306.1441345214844	-1432.5947265625	661.0559692382814	269.8780212402344	-1464.837524414063	657.7097778320314	254.7562866210938	-1410.289306640625	592.5018920898439	128.9434051513672	-1512.127319335938	618.4838867187501	88.4708709716797	-1516.755004882813	560.5553588867189	94.21333312988283	-1503.998901367188	589.9027099609376	87.57630920410158	-1285.961547851563	681.6965332031251	50.4577980041504	-1336.570922851563	
